Results
version=1
nRows=9
nColumns=24
inDegrees=yes
endheader
time	pelvis_tilt	pelvis_list	pelvis_rotation	pelvis_tx	pelvis_ty	pelvis_tz	hip_flexion_r	hip_adduction_r	hip_rotation_r	knee_angle_r	ankle_angle_r	subtalar_angle_r	mtp_angle_r	hip_flexion_l	hip_adduction_l	hip_rotation_l	knee_angle_l	ankle_angle_l	subtalar_angle_l	mtp_angle_l	lumbar_extension	lumbar_bending	lumbar_rotation
      0.73400000	     -3.82720067	      2.72625460	      1.80384650	     -0.45213301	      1.06850724	      0.34308073	     15.79537097	      0.56522622	     -1.12041582	    -19.57933563	      6.31213072	     -6.10152071	      8.83942760	     18.13950203	     -2.36665785	     -7.03614909	    -69.91352852	      3.16729941	      0.61964495	      5.62616755	     -9.67487010	      1.83777295	      0.32098514
      0.73816667	     -3.80292377	      2.82120229	      1.69620378	     -0.44691881	      1.06953277	      0.34358679	     15.28968032	      0.50265793	     -1.09111723	    -19.21470263	      6.40426931	     -5.95163667	      8.84269233	     18.59900256	     -2.30827546	     -7.24603278	    -69.63248339	      3.47024786	      0.81368088	      5.61361301	     -9.71629671	      1.67261342	      0.51387521
      0.74233333	     -3.76578736	      2.92812782	      1.56680319	     -0.44172208	      1.07054673	      0.34409153	     14.77534348	      0.42779587	     -1.04536038	    -18.85163486	      6.46790524	     -5.80119716	      8.84642265	     19.02750924	     -2.23928378	     -7.48550009	    -69.29238994	      3.77877302	      0.99034081	      5.60971095	     -9.75965872	      1.51748107	      0.66484161
      0.74650000	     -3.72546376	      3.01129928	      1.43802694	     -0.43654221	      1.07151678	      0.34460046	     14.25552740	      0.37856964	     -0.99779249	    -18.48047304	      6.55203909	     -5.64870439	      8.85140728	     19.44584239	     -2.19954442	     -7.72238051	    -68.90865713	      4.08320291	      1.22051738	      5.60814097	     -9.82135557	      1.37015407	      0.85785216
      0.75066667	     -3.67407492	      3.07459783	      1.31300874	     -0.43137681	      1.07244840	      0.34509783	     13.72189170	      0.34825809	     -0.96215902	    -18.10321522	      6.65703108	     -5.51496363	      8.85878029	     19.84817759	     -2.18464644	     -7.95834360	    -68.49050738	      4.36938042	      1.47080412	      5.60299327	     -9.90257634	      1.22331076	      1.13963768
      0.75483333	     -3.62235263	      3.15613346	      1.16453626	     -0.42623008	      1.07333546	      0.34560249	     13.19940051	      0.29931357	     -0.89928817	    -17.74258895	      6.73414124	     -5.37674487	      8.86564593	     20.23005610	     -2.15028956	     -8.22032077	    -68.00979897	      4.65604383	      1.69205869	      5.60169496	     -9.97272263	      1.08304929	      1.33387724
      0.75900000	     -3.57310657	      3.22213518	      1.01877076	     -0.42108998	      1.07416886	      0.34610108	     12.67526632	      0.26563776	     -0.83512390	    -17.36994105	      6.81064948	     -5.24371266	      8.87409175	     20.60802941	     -2.13504565	     -8.48346605	    -67.49194721	      4.94499736	      1.93241802	      5.60177462	    -10.05130094	      0.95566627	      1.55575765
      0.76316667	     -3.55957577	      3.29293190	      0.85941045	     -0.41597305	      1.07488620	      0.34660711	     12.20019062	      0.22697151	     -0.74714072	    -17.01157159	      6.85865278	     -5.10469338	      8.88026782	     21.01428714	     -2.11485852	     -8.76097004	    -66.92966947	      5.21668482	      2.12013598	      5.60556460	    -10.09194902	      0.82261467	      1.67724803
      0.76733333	     -3.49396092	      3.33252989	      0.71354427	     -0.41086186	      1.07563380	      0.34707164	     11.66086300	      0.21637552	     -0.68928978	    -16.63996962	      6.95583608	     -4.99463948	      8.89206176	     21.35661304	     -2.12479049	     -9.01531566	    -66.32851262	      5.50018257	      2.39719251	      5.60827121	    -10.18485249	      0.72339760	      1.97743532
